<svg xmlns="http://www.w3.org/2000/svg" version="1.1" xmlns:xlink="http://www.w3.org/1999/xlink" xmlns:svgjs="http://svgjs.dev/svgjs" width="2000" height="2250" viewBox="0 0 2000 2250"><g transform="matrix(1,0,0,1,3.410605131648481e-13,0)"><svg xmlns="http://www.w3.org/2000/svg" version="1.1" xmlns:xlink="http://www.w3.org/1999/xlink" xmlns:svgjs="http://svgjs.com/svgjs" viewBox="0 0 320 360" data-background-color="#ffffff" preserveAspectRatio="xMidYMid meet" height="2250" width="2000"><defs></defs><g id="tight-bounds" transform="matrix(1,0,0,1,0,0)"><svg viewBox="0 0 320 360" height="360" width="320"><g><svg xmlns="http://www.w3.org/2000/svg" version="1.1" xmlns:xlink="http://www.w3.org/1999/xlink" xmlns:svgjs="http://svgjs.com/svgjs"></svg></g><g><svg viewBox="0 0 320 360" height="360" width="320"><g><path d="M20.961 227.22l3.726 4.658-1.863-6.056c-0.466-2.795-3.726 0.466-1.863 1.398M25.153 224.425c1.397 2.329 2.795 4.658 2.795 6.987 0 3.261 2.795 4.658 5.123 5.589-3.261-3.726-5.124-13.974-7.918-12.576M204.017 26.929c7.918 0 15.371-0.932 23.756 0.931 20.495 5.124 37.729 15.371 49.374 29.811l32.606 52.169c1.397 13.042 4.192 27.482 3.726 43.319 3.261 0 2.795-4.658 6.521-5.59-3.726 9.316-5.59 20.961-6.521 34.469-2.329-7.453 0-18.632 0.466-24.687-3.261 5.124-5.124 1.397-5.124-0.932 0.466-3.726-1.397-3.261-2.795-4.658-5.124-4.658-8.384-9.782-12.11-17.7 2.329-6.055 2.795-14.905-4.658-19.563-2.329-1.397-5.124-3.726-6.521-7.453-1.863-5.124-5.124-11.179-4.193-19.097 0.466-2.329-6.987 5.124-11.179 1.863-18.166-12.576-36.332-27.016-58.224-39.127-11.645 0-20.029-4.192-24.221-9.316-3.726-4.658-0.932-10.713 4.658-11.179 3.261 0 6.987-0.932 9.782 0.932 0.466-1.863 2.329-4.192 4.657-4.192M157.904 16.215l0.932 0.466c4.658 0.932 6.987 7.453 12.11 5.124 0 3.261 0.466 6.521-0.466 8.85-1.397 3.726-5.59 3.726-8.85 3.726-31.208-1.863-49.374 11.179-68.471 22.358-5.124 3.261-10.713 5.59-14.906 9.782-20.029 18.632-41.921 35.866-47.045 70.335l-4.192 38.195c-0.466 4.192-5.124 8.384-4.192 13.508l3.26 22.824c-3.261-3.261-5.124 0.932-4.192 2.795 0.466 1.397 2.329 6.055 5.124 1.863 3.726 6.987 7.453 20.495 12.576 26.55 15.837 18.632 36.332 35.4 53.101 52.169 4.192-0.932 7.453-0.932 8.384-3.727 1.397 2.795-1.397 5.59-3.726 6.056 7.453 4.658 15.837 8.85 27.016 9.781 14.44 0.932 27.948 3.261 40.524 6.522 6.521-1.863 13.042-2.795 20.029-3.261 2.329 0 3.726-3.726 6.521-4.658l0.466-4.658c2.795 4.192 2.329-1.397 0.466-4.192 3.261 2.795 4.192 5.124 5.589 6.987 0-1.397 3.726-6.521 3.727-0.466l0.931-6.055c1.397-0.932 1.863 5.124 3.261 0.931 1.397-4.192 4.192-0.932 6.987-2.329-0.932 1.863-0.466 5.59 2.794 3.261l3.727-3.261c2.329 5.59 6.055 3.261 7.918 2.329 20.495-13.042 40.99-28.413 60.553-43.784l-0.466 6.055 2.329-7.453c2.329 2.329 4.192 0.466 5.124-0.931 2.795-4.658 6.521-9.316 12.577-13.508-7.453 20.029-16.303 35.866-27.482 48.908l-4.658 5.59c0 3.261-0.932 7.453-4.658 7.918-1.863 0.466-5.59-0.932-8.384 1.863-1.397 1.863 3.261 5.59-0.466 2.795-3.261-2.329-6.521 0-10.248 0.932-2.795 0.932 1.863 3.726 2.795 5.589 0.932 1.863 1.863 3.726 1.398 6.056l-5.124-5.59c-6.055 3.261-9.782 9.316-14.906 13.974-2.329 1.863-1.397 5.124-1.397 7.918-3.261 0-6.987-0.932-8.85 0.932-1.397 1.863-0.932 4.658-0.932 7.453-4.658-0.466-5.124-7.453-9.315-6.056-4.192 0.932-8.85 1.397-12.577 3.727 2.795 5.59-4.658 2.329-3.726 3.26-6.987-4.192-13.042-7.453-20.495-4.658-15.837-5.124-35.4-2.795-49.84-0.931 0-2.329 0.466-4.658-0.466-5.124-0.932 2.329-3.726 1.397-3.26 1.397-8.85-6.055-17.7-9.782-27.016-14.905-8.384 0.932-16.303-3.261-18.632-5.59-6.521-6.055-13.974-2.795-20.029-4.192-13.042-3.261-17.7-16.769-19.098-26.084-0.932-4.658-4.658-6.521-6.055-6.056-6.055-19.563-15.371-37.263-22.824-55.429-1.863-4.658-1.397-9.316-1.397-14.44 2.329 0.932 4.658 0.466 4.192-2.794-2.329-15.371-7.918-27.016-13.974-38.195 3.261-15.837 3.726-34.469 11.179-48.443 6.521-12.576 18.632-19.098 27.016-29.811 2.795-3.726 2.795-8.85 5.59-12.11 9.316-9.316 18.632-19.098 28.879-27.482 4.658-3.726 10.247 0 17.234-1.397 2.329-8.384 11.645-15.837 20.495-13.508 3.726 0.932 11.179-8.85 13.508-9.782 3.726-1.397 1.863 3.726 1.863 6.987 8.85-6.987 20.961-10.713 32.14-14.906" fill="#3c2c32" data-fill-palette-color="tertiary"></path></g><g transform="matrix(1,0,0,1,70.08999999999999,90.08999999999999)"><svg viewBox="0 0 179.82000000000002 179.82000000000002" height="179.82000000000002" width="179.82000000000002"><g><svg viewBox="0 0 179.82000000000002 179.82000000000002" height="179.82000000000002" width="179.82000000000002"><g><svg viewBox="0 0 179.82000000000002 179.82000000000002" height="179.82000000000002" width="179.82000000000002"><g><svg viewBox="0 0 179.82000000000002 179.82000000000002" height="179.82000000000002" width="179.82000000000002"><g><svg viewBox="0 0 179.82000000000002 179.82000000000002" height="179.82000000000002" width="179.82000000000002"><g transform="matrix(1,0,0,1,47.66357231902268,51.04328653350086)"><svg viewBox="0 0 84.49285536195467 77.7334269329983" height="77.7334269329983" width="84.49285536195467"><g><svg xmlns:x="http://ns.adobe.com/Extensibility/1.0/" xmlns:i="http://ns.adobe.com/AdobeIllustrator/10.0/" xmlns:graph="http://ns.adobe.com/Graphs/1.0/" xmlns="http://www.w3.org/2000/svg" xmlns:xlink="http://www.w3.org/1999/xlink" version="1.1" x="0" y="0" viewBox="7 9 50 46" enable-background="new 0 0 64 64" xml:space="preserve" height="77.7334269329983" width="84.49285536195467" class="icon-iconwithsubstitution-0" data-fill-palette-color="accent" id="iconwithsubstitution-0"><g fill="#0074d9" data-fill-palette-color="accent"><g fill="#0074d9" data-fill-palette-color="accent"><path d="M56 9H8c-0.552 0-1 0.448-1 1v36c0 0.553 0.448 1 1 1h23v6h-9c-0.552 0-1 0.447-1 1s0.448 1 1 1h20c0.553 0 1-0.447 1-1s-0.447-1-1-1h-9v-6h23c0.553 0 1-0.447 1-1V10C57 9.448 56.553 9 56 9zM55 45H9V11h46V45z" fill="#0074d9" data-fill-palette-color="accent"></path><path d="M23.293 32.707C23.488 32.902 23.744 33 24 33s0.512-0.098 0.707-0.293c0.391-0.391 0.391-1.023 0-1.414L21.414 28l3.293-3.293c0.391-0.391 0.391-1.023 0-1.414s-1.023-0.391-1.414 0l-4 4c-0.391 0.391-0.391 1.023 0 1.414L23.293 32.707z" fill="#0074d9" data-fill-palette-color="accent"></path><path d="M39.293 32.707C39.488 32.902 39.744 33 40 33s0.512-0.098 0.707-0.293l4-4c0.391-0.391 0.391-1.023 0-1.414l-4-4c-0.391-0.391-1.023-0.391-1.414 0s-0.391 1.023 0 1.414L42.586 28l-3.293 3.293C38.902 31.684 38.902 32.316 39.293 32.707z" fill="#0074d9" data-fill-palette-color="accent"></path><path d="M29.757 36.97C29.839 36.99 29.92 37 30.001 37c0.448 0 0.855-0.303 0.969-0.758l4-16c0.135-0.536-0.191-1.079-0.728-1.213-0.535-0.138-1.079 0.192-1.212 0.728l-4 16C28.896 36.293 29.222 36.836 29.757 36.97z" fill="#0074d9" data-fill-palette-color="accent"></path></g></g></svg></g></svg></g><path d="M18.866 69.117l-0.934 3.28-17.557-5 0.935-3.281zM24.156 44.567v0l-9.492-6.075 1.839-2.873 9.466 6.058c1.995 1.277 3.169 2.783 3.521 4.519 0.357 1.739-0.062 3.544-1.259 5.414v0c-1.167 1.824-2.613 2.953-4.336 3.385-1.723 0.432-3.542 0.035-5.458-1.19v0l-9.629-6.163 1.839-2.873 9.604 6.146c1.169 0.748 2.201 0.999 3.098 0.753 0.899-0.237 1.645-0.819 2.24-1.749v0c1.343-2.098 0.865-3.882-1.433-5.352zM38.536 28.625l3.081 3.983 2.313-1.789c1.729-1.338 2.087-2.662 1.073-3.974v0c-1.039-1.344-2.459-1.32-4.258 0.072v0zM35.945 20.977l-2.08 1.609 2.994 3.871 1.631-1.261c0.969-0.75 1.548-1.505 1.737-2.268 0.189-0.762 0.052-1.443-0.412-2.043v0c-0.431-0.557-0.978-0.839-1.644-0.847-0.66-0.012-1.402 0.301-2.226 0.939zM40.627 36.904l-11.168-14.44 5.115-3.957c1.547-1.197 3.031-1.762 4.451-1.696 1.42 0.066 2.577 0.677 3.472 1.833v0c0.609 0.787 0.923 1.635 0.941 2.545 0.019 0.91-0.236 1.719-0.766 2.428v0c0.912-0.414 1.839-0.532 2.781-0.354 0.933 0.177 1.774 0.75 2.523 1.719v0c0.886 1.146 1.212 2.391 0.978 3.736-0.24 1.349-1.067 2.571-2.48 3.664v0zM63.644 15.197l0.005 0.819 4.905-1.562-0.478-0.7c-1.178-1.671-2.153-3.079-2.923-4.226-0.777-1.145-1.259-1.869-1.448-2.171v0l-0.269-0.479c0.118 0.907 0.188 3.68 0.208 8.319zM76.231 19.288l-3.512 1.118-2.495-3.553-6.579 2.095 0.019 4.341-3.406 1.085 0.344-19.268 4.208-1.34zM86.636 0l12.708 0.281-0.062 2.812-4.639-0.103-0.341 15.439-3.431-0.076 0.341-15.439-4.639-0.102zM145.47 18.784v0l-1.738 2.841c-0.755-1.398-1.84-2.53-3.255-3.396-1.42-0.869-2.899-1.111-4.435-0.726-1.537 0.385-2.8 1.386-3.789 3.003-0.989 1.617-1.302 3.191-0.938 4.723 0.361 1.538 1.303 2.773 2.827 3.705v0c1.467 0.897 2.95 1.273 4.452 1.128v0l-1.786 2.919c-1.327 0.029-2.854-0.484-4.58-1.54v0c-2.31-1.413-3.77-3.306-4.381-5.68-0.611-2.373-0.182-4.761 1.288-7.163v0c1.441-2.356 3.359-3.824 5.755-4.406 2.397-0.573 4.765-0.143 7.103 1.287v0c1.709 1.046 2.868 2.147 3.477 3.305zM158.997 34.549l-4.981 4.172 1.232 1.471c0.8 0.955 1.626 1.477 2.478 1.567 0.852 0.09 1.667-0.192 2.446-0.844v0c0.758-0.635 1.156-1.371 1.197-2.207 0.04-0.837-0.322-1.713-1.088-2.626v0zM144.953 41.863l13.994-11.722 3.67 4.381c1.321 1.577 1.952 3.199 1.891 4.866-0.07 1.666-0.775 3.06-2.113 4.181v0c-1.427 1.195-2.969 1.657-4.627 1.386-1.653-0.276-3.098-1.153-4.337-2.631v0l-1.532-1.829-4.755 3.984zM179.355 67.414v0l-3.102 1.211c0.245-1.57 0.065-3.128-0.538-4.673-0.605-1.551-1.636-2.638-3.092-3.262-1.457-0.623-3.068-0.59-4.834 0.099-1.766 0.689-2.967 1.754-3.603 3.193-0.643 1.443-0.64 2.996 0.009 4.661v0c0.625 1.602 1.579 2.799 2.862 3.592v0l-3.187 1.243c-1.074-0.78-1.979-2.112-2.715-3.997v0c-0.984-2.522-1.002-4.913-0.053-7.173 0.949-2.26 2.735-3.901 5.359-4.924v0c2.573-1.004 4.989-1.013 7.247-0.028 2.255 0.994 3.881 2.769 4.878 5.323v0c0.728 1.866 0.985 3.445 0.769 4.735zM18.307 121.514v0c-0.336-0.944-0.953-1.565-1.85-1.863-0.899-0.305-2.005-0.223-3.318 0.245v0c-0.567 0.202-1.043 0.44-1.427 0.713-0.386 0.267-0.664 0.527-0.832 0.781-0.175 0.256-0.284 0.533-0.33 0.829v0c-0.08 0.481-0.026 0.986 0.163 1.516v0c0.295 0.829 0.679 1.623 1.151 2.382v0l-0.596 0.384c-0.095-0.124-0.292-0.478-0.594-1.06-0.297-0.591-0.514-1.078-0.65-1.461-0.136-0.383-0.229-0.723-0.277-1.022-0.045-0.307-0.038-0.651 0.02-1.031 0.067-0.376 0.204-0.727 0.412-1.052 0.207-0.325 0.534-0.65 0.978-0.974 0.449-0.333 1.008-0.618 1.678-0.857v0c1.473-0.525 2.744-0.597 3.814-0.216v0c1.119 0.399 1.898 1.213 2.337 2.444v0c0.134 0.376 0.24 0.795 0.318 1.255 0.087 0.465 0.131 0.801 0.133 1.009v0l-1.746 0.784-0.314-0.578 1.296-0.656c-0.076-0.576-0.198-1.101-0.366-1.572zM15.645 125.618v0c1.305-0.612 2.507-0.76 3.604-0.445 1.088 0.312 1.869 0.974 2.343 1.986v0c1.109 2.366 0.235 4.218-2.621 5.556v0c-1.299 0.609-2.487 0.754-3.563 0.437-1.076-0.318-1.852-0.986-2.329-2.004v0c-1.109-2.366-0.254-4.209 2.566-5.53zM16.056 126.423v0c-2.36 1.106-3.113 2.569-2.26 4.389v0c0.368 0.784 0.986 1.291 1.855 1.519 0.866 0.222 1.854 0.073 2.964-0.447v0c2.353-1.103 3.104-2.565 2.251-4.385v0c-0.368-0.784-0.985-1.288-1.852-1.51-0.875-0.225-1.862-0.081-2.958 0.434zM20.957 144.57l-1.421-2.273 0.62-0.387 0.452 0.723 5.957-3.725-6.714 0.618-0.479-0.766 3.501-5.758-5.957 3.725 0.576 0.921-0.62 0.388-1.421-2.273 0.62-0.388 0.404 0.646 6.646-4.155-0.404-0.646 0.62-0.387 0.883 1.412-3.96 6.498 7.576-0.713 0.931 1.489-0.619 0.388-0.452-0.723-6.647 4.155 0.528 0.843zM29.097 141.035l-0.518-0.653 0.573-0.454 1.716 2.164c0.677 0.854 1.034 1.603 1.071 2.248 0.036 0.645-0.351 1.289-1.163 1.933-0.806 0.639-1.573 0.898-2.301 0.775-0.718-0.121-1.406-0.596-2.061-1.423v0l-0.638-0.804-2.259 1.792 0.587 0.74-0.573 0.454-1.665-2.1 0.572-0.454 0.518 0.652zM30.258 142.498v0l-0.6-0.755-3.309 2.624 0.599 0.756c0.492 0.62 0.995 0.977 1.51 1.07 0.524 0.094 1.096-0.105 1.717-0.597 0.62-0.492 0.912-0.974 0.875-1.445-0.028-0.471-0.292-1.021-0.792-1.653zM33.146 145.912l-0.557-0.591 0.533-0.501 3.868 4.111-0.066 0.048-1.22 1.385-0.526-0.411 0.828-1.002-2.241-2.38-2.595 2.442 1.983 2.107 0.614-0.577 0.501 0.532-1.664 1.565-0.501-0.532 0.518-0.487-1.983-2.107-2.581 2.428 2.485 2.64 1.344-0.986 0.401 0.514-1.832 1.446-4.106-4.362 0.532-0.501 0.557 0.591zM34.561 159.234l-1.993-1.778 0.487-0.545 0.644 0.575 5.171-5.796-1.454-1.297-0.925 0.807-0.417-0.508 1.399-1.324 4.515 4.029-1.149 1.547-0.56-0.364 0.69-1.017-1.478-1.318-5.171 5.795 0.727 0.649zM42.71 154.888l-0.693-0.548 0.453-0.574 2.111 1.668-0.453 0.574-0.709-0.56-4.857 6.151 0.709 0.56-0.453 0.574-2.112-1.667 0.453-0.574 0.694 0.547zM43.166 165.725l-2.201-1.512 0.414-0.603 0.711 0.489 4.4-6.401-1.606-1.104-0.816 0.918-0.478-0.452 1.221-1.489 4.986 3.428-0.944 1.679-0.602-0.29 0.557-1.097-1.632-1.121-4.4 6.401 0.804 0.552zM50.703 160.387l-0.757-0.456 0.377-0.626 2.305 1.388-0.377 0.627-0.774-0.467-4.045 6.714 0.774 0.466-0.377 0.627-2.305-1.389 0.377-0.626 0.757 0.456zM58.776 164.536l-0.71-0.351 0.324-0.655 2.33 1.153-0.324 0.655-0.856-0.423-6.512 6.338-0.791-0.392 0.979-9.076-0.783-0.387 0.324-0.655 2.403 1.189-0.324 0.655-0.819-0.406-0.88 8.005zM61.434 165.695l-0.759-0.288 0.259-0.684 5.278 2.004-0.039 0.072-0.491 1.779-0.653-0.139 0.306-1.263-3.056-1.16-1.265 3.331 2.705 1.027 0.299-0.788 0.684 0.26-0.811 2.136-0.683-0.26 0.252-0.664-2.705-1.027-1.258 3.312 3.389 1.287 0.777-1.475 0.586 0.287-1.015 2.102-5.601-2.126 0.26-0.683 0.759 0.288zM71.402 168.95l-0.811-0.188 0.165-0.712 2.69 0.624c1.062 0.246 1.807 0.611 2.237 1.093 0.43 0.482 0.528 1.227 0.294 2.236-0.233 1.002-0.672 1.682-1.318 2.039-0.638 0.352-1.471 0.409-2.499 0.171v0l-0.999-0.232-0.652 2.808 0.92 0.214-0.165 0.712-2.611-0.606 0.165-0.712 0.811 0.188zM73.221 169.373v0l-0.939-0.219-0.955 4.115 0.939 0.218c0.771 0.179 1.387 0.145 1.848-0.103 0.469-0.253 0.792-0.765 0.971-1.536 0.179-0.771 0.107-1.33-0.215-1.676-0.315-0.351-0.864-0.618-1.649-0.799zM77.568 170.229l-0.804-0.11 0.098-0.725 3.179 0.435c0.899 0.123 1.569 0.416 2.012 0.879 0.436 0.463 0.6 1.086 0.492 1.871v0c-0.071 0.516-0.325 1.028-0.763 1.535-0.445 0.506-0.855 0.836-1.232 0.99v0l1.621 3.664 0.936 0.128-0.099 0.724-1.449-0.198-1.829-4.092-1.911-0.261-0.416 3.048 0.965 0.132-0.098 0.724-2.666-0.364 0.099-0.724 0.804 0.11zM79.872 170.543v0l-1.408-0.192-0.546 3.994 2.173 0.296c0.928-0.645 1.445-1.35 1.549-2.114v0c0.076-0.557-0.037-1.006-0.338-1.348-0.303-0.335-0.779-0.547-1.43-0.636zM83.909 175.008v0c0.052-1.441 0.469-2.577 1.251-3.409 0.775-0.825 1.72-1.218 2.836-1.177v0c2.611 0.094 3.86 1.718 3.745 4.869v0c-0.052 1.434-0.465 2.557-1.239 3.369-0.774 0.812-1.723 1.197-2.846 1.157v0c-2.611-0.094-3.86-1.697-3.747-4.809zM84.813 175.01v0c-0.094 2.604 0.863 3.943 2.872 4.016v0c0.866 0.031 1.599-0.288 2.198-0.957 0.593-0.669 0.912-1.616 0.957-2.841v0c0.094-2.597-0.864-3.933-2.873-4.005v0c-0.866-0.031-1.595 0.288-2.188 0.957-0.6 0.676-0.922 1.619-0.966 2.83zM98.166 175.98l-1.145 0.072-0.047-0.729 2.402-0.152 0.046 0.73-0.517 0.032 0.204 3.223c-0.146 0.057-0.54 0.149-1.183 0.278-0.65 0.122-1.178 0.197-1.583 0.222-0.405 0.026-0.758 0.021-1.059-0.014-0.308-0.042-0.636-0.143-0.986-0.304-0.343-0.168-0.642-0.397-0.898-0.686-0.256-0.289-0.478-0.692-0.666-1.209-0.196-0.523-0.316-1.14-0.361-1.849v0c-0.099-1.56 0.182-2.802 0.843-3.726v0c0.692-0.966 1.689-1.49 2.993-1.573v0c0.399-0.025 0.83-0.012 1.294 0.04 0.471 0.045 0.806 0.095 1.007 0.15v0l0.272 1.895-0.642 0.143-0.273-1.428c-0.575-0.086-1.113-0.113-1.613-0.081v0c-1 0.063-1.767 0.485-2.3 1.265-0.541 0.78-0.767 1.866-0.679 3.258v0c0.038 0.601 0.136 1.124 0.292 1.568 0.15 0.445 0.324 0.783 0.522 1.015 0.198 0.238 0.433 0.42 0.706 0.545v0c0.441 0.21 0.948 0.296 1.522 0.26 0.574-0.036 1.233-0.136 1.975-0.298v0zM100.502 170.585l-0.802 0.133-0.119-0.722 3.166-0.522c0.895-0.148 1.622-0.065 2.181 0.247 0.553 0.314 0.893 0.861 1.022 1.643v0c0.085 0.514-0.007 1.078-0.276 1.692-0.276 0.615-0.571 1.051-0.885 1.309v0l2.629 3.023 0.931-0.153 0.119 0.721-1.442 0.238-2.954-3.371-1.903 0.314 0.5 3.035 0.962-0.159 0.119 0.721-2.655 0.438-0.119-0.721 0.802-0.132zM102.796 170.207v0l-1.403 0.231 0.657 3.977 2.163-0.357c0.697-0.89 0.983-1.716 0.857-2.477v0c-0.091-0.554-0.332-0.95-0.72-1.188-0.388-0.231-0.906-0.293-1.554-0.186zM117.768 175.348l-2.591 0.725-0.197-0.704 0.782-0.219-1.052-1.498-3.94 1.102-0.112 1.824 0.919-0.257 0.197 0.704-2.581 0.722-0.197-0.704 0.841-0.235 0.673-9.087 0.782-0.219 5.389 7.391 0.89-0.249zM114.298 173.082l-3.163-4.482-0.328 5.459zM128.362 170.951l-2.474 1.031-0.281-0.675 0.787-0.328-2.7-6.486-0.489 6.725-0.834 0.347-5.107-4.395 2.7 6.486 1.003-0.417 0.281 0.675-2.474 1.03-0.281-0.675 0.703-0.293-3.013-7.236-0.703 0.293-0.281-0.675 1.537-0.64 5.764 4.969 0.535-7.591 1.621-0.676 0.281 0.675-0.787 0.328 3.013 7.236 0.918-0.383zM138.576 164.944l-2.308 1.362-0.372-0.63 0.735-0.433-3.571-6.051 0.445 6.728-0.778 0.459-5.665-3.648 3.57 6.051 0.936-0.552 0.371 0.63-2.308 1.362-0.372-0.63 0.656-0.386-3.983-6.751-0.656 0.387-0.371-0.63 1.434-0.846 6.395 4.125-0.519-7.592 1.513-0.893 0.371 0.63-0.734 0.433 3.983 6.751 0.857-0.506zM135.37 156.666l-0.716 0.517-0.428-0.593 2.183-1.574 0.427 0.593-0.733 0.529 4.585 6.357 0.733-0.528 0.428 0.592-2.183 1.574-0.427-0.593 0.716-0.516zM137.923 154.669l-0.648 0.554-0.475-0.556 1.381-1.181 9.286 2.721-4.829-5.57-0.656 0.561-0.475-0.555 1.929-1.65 0.475 0.556-0.64 0.547 5.568 6.513-0.733 0.627-9.293-2.714 4.829 5.57 0.764-0.653 0.475 0.555-2.038 1.742-0.475-0.556 0.648-0.554zM151.797 148.49l-0.786 0.836-0.532-0.501 1.647-1.753 0.533 0.501-0.354 0.377 2.352 2.211c-0.067 0.141-0.292 0.478-0.672 1.012-0.39 0.534-0.725 0.949-1.003 1.245-0.278 0.296-0.539 0.534-0.783 0.714-0.253 0.18-0.562 0.331-0.926 0.452-0.365 0.112-0.74 0.15-1.125 0.114-0.384-0.036-0.822-0.178-1.313-0.426-0.501-0.248-1.01-0.615-1.528-1.102v0c-1.139-1.071-1.784-2.169-1.934-3.294v0c-0.156-1.178 0.213-2.243 1.108-3.195v0c0.273-0.291 0.597-0.576 0.972-0.856 0.374-0.289 0.653-0.482 0.836-0.579v0l1.496 1.196-0.371 0.543-1.176-0.854c-0.478 0.331-0.889 0.679-1.232 1.044v0c-0.686 0.73-0.957 1.562-0.813 2.496 0.139 0.939 0.717 1.886 1.733 2.841v0c0.439 0.413 0.868 0.727 1.286 0.944 0.414 0.222 0.772 0.35 1.075 0.383 0.308 0.038 0.604 0.01 0.888-0.085v0c0.465-0.148 0.894-0.432 1.288-0.851 0.394-0.419 0.806-0.942 1.237-1.569v0zM154.016 137.257v0c-0.573 0.821-0.721 1.684-0.444 2.588 0.274 0.909 0.982 1.763 2.125 2.56v0c0.494 0.345 0.964 0.594 1.409 0.749 0.442 0.16 0.815 0.234 1.119 0.223 0.31-0.007 0.599-0.077 0.867-0.212v0c0.438-0.214 0.818-0.551 1.14-1.012v0c0.504-0.722 0.928-1.495 1.271-2.319v0l0.66 0.262c-0.046 0.149-0.219 0.515-0.52 1.098-0.309 0.585-0.58 1.044-0.812 1.377-0.232 0.333-0.456 0.606-0.671 0.82-0.224 0.215-0.508 0.409-0.852 0.581-0.345 0.164-0.711 0.255-1.096 0.275-0.385 0.02-0.839-0.057-1.361-0.231-0.531-0.173-1.089-0.463-1.671-0.87v0c-1.282-0.895-2.079-1.888-2.39-2.98v0c-0.325-1.143-0.113-2.25 0.635-3.321v0c0.229-0.327 0.508-0.657 0.837-0.988 0.328-0.34 0.576-0.572 0.745-0.694v0l1.652 0.968-0.289 0.591-1.286-0.676c-0.425 0.397-0.781 0.8-1.068 1.211zM156.073 134.069l-0.411 0.713-0.633-0.365 1.343-2.332 0.633 0.365-0.481 0.836 6.792 3.912 1.687-2.93-1.337-0.993 0.377-0.533 1.31 0.919 0.005-0.009 0.021 0.024 0.582 0.394-0.075 0.109 0.009 0.005-2.807 4.874-0.633-0.365 0.41-0.712zM159.034 128.625l-0.357 0.786-0.665-0.303 1.113-2.449 0.665 0.302-0.382 0.841 4.16 1.891c1.251 0.569 2.195 0.7 2.831 0.394v0c0.304-0.145 0.55-0.319 0.74-0.522 0.186-0.213 0.352-0.48 0.497-0.8v0c0.297-0.653 0.299-1.295 0.006-1.927-0.296-0.64-0.968-1.198-2.016-1.674v0l-4.16-1.891-0.365 0.804-0.666-0.302 1.055-2.32 0.665 0.302-0.344 0.758 4.178 1.899c1.263 0.574 2.065 1.273 2.404 2.096 0.337 0.83 0.306 1.682-0.091 2.557v0c-0.202 0.444-0.424 0.811-0.668 1.102-0.246 0.297-0.564 0.546-0.954 0.749v0c-0.808 0.421-1.964 0.289-3.468-0.394v0zM162.594 120.309l-0.273 0.819-0.694-0.232 0.908-2.715c0.605-1.81 1.617-2.478 3.036-2.004v0c0.597 0.2 1.167 0.64 1.71 1.321v0c0.594-0.687 1.442-0.845 2.547-0.476v0c0.995 0.333 1.595 0.812 1.8 1.437 0.205 0.625 0.135 1.455-0.211 2.488v0l-0.969 2.898-0.694-0.232 0.274-0.818zM167.177 119.251v0l-0.493 1.473 3.63 1.214 0.39-1.165c0.129-0.385 0.215-0.706 0.258-0.963 0.037-0.259 0.027-0.519-0.028-0.78v0c-0.087-0.486-0.535-0.864-1.345-1.135v0c-0.636-0.212-1.143-0.2-1.521 0.037-0.377 0.231-0.674 0.67-0.891 1.319zM165.991 120.492l0.515-1.54c0.103-0.308 0.212-0.571 0.328-0.79v0c-0.462-0.561-0.953-0.929-1.472-1.102v0c-1.008-0.337-1.726 0.136-2.156 1.42v0l-0.325 0.972zM0.995 93.911c0-3.903 3.164-7.067 7.066-7.067 3.903 0 7.067 3.164 7.067 7.067 0 3.903-3.164 7.067-7.067 7.066-3.903 0-7.067-3.164-7.066-7.066zM165.312 93.911c0-3.903 3.164-7.067 7.066-7.067 3.903 0 7.067 3.164 7.067 7.067 0 3.903-3.164 7.067-7.067 7.066-3.903 0-7.067-3.164-7.066-7.066z" fill="#3c2c32" data-fill-palette-color="primary"></path></svg></g></svg></g></svg></g></svg></g></svg></g></svg></g></svg><rect width="320" height="360" fill="none" stroke="none" visibility="hidden"></rect></g></svg></g></svg>